<svg xmlns="http://www.w3.org/2000/svg" viewBox="0 0 772 250" width="772" height="250">
  <!-- Achtergrond gradient -->
  <defs>
    <linearGradient id="bg" x1="0%" y1="0%" x2="100%" y2="100%">
      <stop offset="0%" style="stop-color:#1a1a2e;stop-opacity:1" />
      <stop offset="100%" style="stop-color:#0f3460;stop-opacity:1" />
    </linearGradient>
  </defs>
  <rect width="772" height="250" fill="url(#bg)"/>

  <!-- Decoratieve cirkels achtergrond -->
  <circle cx="650" cy="125" r="180" fill="#e94560" fill-opacity="0.07"/>
  <circle cx="680" cy="90" r="100" fill="#53d8fb" fill-opacity="0.06"/>

  <!-- Brandstofpomp icoon (links) -->
  <rect x="48" y="62" width="72" height="96" rx="8" fill="#e94560"/>
  <rect x="56" y="78" width="56" height="36" rx="4" fill="#0f3460"/>
  <rect x="120" y="78" width="14" height="52" rx="4" fill="#e94560"/>
  <rect x="130" y="88" width="26" height="30" rx="6" fill="#e94560"/>
  <circle cx="143" cy="103" r="9" fill="#0f3460"/>
  <circle cx="143" cy="103" r="4" fill="#e94560"/>
  <!-- Druppel op het display -->
  <path d="M72 90 Q72 74 82 67 Q92 74 92 90 Q92 100 82 100 Q72 100 72 90Z" fill="#53d8fb"/>

  <!-- Plugin naam -->
  <text x="190" y="118" font-family="Arial, sans-serif" font-size="48" font-weight="bold"
        fill="#ffffff" letter-spacing="-1">Simple Fuel</text>
  <text x="190" y="170" font-family="Arial, sans-serif" font-size="48" font-weight="bold"
        fill="#e94560" letter-spacing="-1">Registration</text>

  <!-- Tagline -->
  <text x="190" y="200" font-family="Arial, sans-serif" font-size="16"
        fill="#53d8fb" letter-spacing="1">Slimme bonregistratie met AI · wppluginfactory.nl</text>
</svg>
